<?xml version="1.0" encoding="UTF-8"?>
<svg width="20px" height="20px" viewBox="0 0 20 20" version="1.1" xmlns="http://www.w3.org/2000/svg" xmlns:xlink="http://www.w3.org/1999/xlink">
    <title>ic_renwu</title>
    <defs>
        <linearGradient x1="50%" y1="0%" x2="50%" y2="118.327896%" id="linearGradient-1">
            <stop stop-color="#1843DD" offset="0%"></stop>
            <stop stop-color="#3062EC" offset="53.0532539%"></stop>
            <stop stop-color="#2B65E6" offset="100%"></stop>
        </linearGradient>
    </defs>
    <g id="Symbols" stroke="none" stroke-width="1" fill="none" fill-rule="evenodd">
        <g id="card1" transform="translate(-20.000000, -20.000000)">
            <g id="ic_renwu" transform="translate(20.000000, 20.000000)">
                <rect id="Rectangle" fill="#D8D8D8" opacity="0" x="0" y="0" width="20" height="20"></rect>
                <path d="M4,2 L4,6 C4,6.51283584 4.38604019,6.93550716 4.88337887,6.99327227 L5,7 L15,7 C15.5128358,7 15.9355072,6.61395981 15.9932723,6.11662113 L16,6 L16,2 L18.8,2 C18.9104569,2 19,2.08954305 19,2.2 L19,18 C19,18.5522847 18.5522847,19 18,19 L2,19 C1.44771525,19 1,18.5522847 1,18 L1,2.2 C1,2.08954305 1.08954305,2 1.2,2 L4,2 Z M15.8,14.4 L4.2,14.4 C4.08954305,14.4 4,14.4895431 4,14.6 L4,14.6 L4,15.4 C4,15.5104569 4.08954305,15.6 4.2,15.6 L4.2,15.6 L15.8,15.6 C15.9104569,15.6 16,15.5104569 16,15.4 L16,15.4 L16,14.6 C16,14.4895431 15.9104569,14.4 15.8,14.4 L15.8,14.4 Z M15.8,10.9 L4.2,10.9 C4.08954305,10.9 4,10.9895431 4,11.1 L4,11.1 L4,11.9 C4,12.0104569 4.08954305,12.1 4.2,12.1 L4.2,12.1 L15.8,12.1 C15.9104569,12.1 16,12.0104569 16,11.9 L16,11.9 L16,11.1 C16,10.9895431 15.9104569,10.9 15.8,10.9 L15.8,10.9 Z M12.8,1 C12.9104569,1 13,1.08954305 13,1.2 L13,2 L15,2 L15,5.5 C15,5.77614237 14.7761424,6 14.5,6 L5.5,6 C5.22385763,6 5,5.77614237 5,5.5 L5,2 L7,2 L7,1.2 C7,1.08954305 7.08954305,1 7.2,1 L12.8,1 Z" id="Combined-Shape" fill="url(#linearGradient-1)"></path>
            </g>
        </g>
    </g>
</svg>