<?xml version="1.0" encoding="UTF-8"?>
<svg width="20px" height="20px" viewBox="0 0 20 20" version="1.1" xmlns="http://www.w3.org/2000/svg" xmlns:xlink="http://www.w3.org/1999/xlink">
    <title>ic_shujudapin</title>
    <defs>
        <linearGradient x1="50%" y1="0%" x2="50%" y2="118.327896%" id="linearGradient-1">
            <stop stop-color="#1843DD" offset="0%"></stop>
            <stop stop-color="#3062EC" offset="53.0532539%"></stop>
            <stop stop-color="#2B65E6" offset="100%"></stop>
        </linearGradient>
    </defs>
    <g id="Symbols" stroke="none" stroke-width="1" fill="none" fill-rule="evenodd">
        <g id="card1" transform="translate(-20.000000, -20.000000)">
            <g id="ic_shujudapin" transform="translate(20.000000, 20.000000)">
                <rect id="Rectangle" fill="#D8D8D8" opacity="0" x="0" y="0" width="20" height="20"></rect>
                <g transform="translate(1.000000, 2.000000)">
                    <path d="M17,0 C17.5522847,-1.01453063e-16 18,0.44771525 18,1 L18,13 C18,13.5522847 17.5522847,14 17,14 L1,14 C0.44771525,14 6.76353751e-17,13.5522847 0,13 L0,1 C-6.76353751e-17,0.44771525 0.44771525,1.01453063e-16 1,0 L17,0 Z M3,4 L2.2,4 C2.08954305,4 2,4.08954305 2,4.2 L2,4.2 L2,11 C2,11.1104569 2.08954305,11.2 2.2,11.2 L2.2,11.2 L3,11.2 C3.11045695,11.2 3.2,11.1104569 3.2,11 L3.2,11 L3.2,4.2 C3.2,4.08954305 3.11045695,4 3,4 L3,4 Z M6.20000236,7.2 L5.40000236,7.2 C5.28954541,7.2 5.20000236,7.28954305 5.20000236,7.4 L5.20000236,7.4 L5.20000236,11 C5.20000236,11.1104569 5.28954541,11.2 5.40000236,11.2 L5.40000236,11.2 L6.20000236,11.2 C6.31045931,11.2 6.40000236,11.1104569 6.40000236,11 L6.40000236,11 L6.40000236,7.4 C6.40000236,7.28954305 6.31045931,7.2 6.20000236,7.2 L6.20000236,7.2 Z M9.40000473,5.2 L8.60000473,5.2 C8.48954778,5.2 8.40000473,5.28954305 8.40000473,5.4 L8.40000473,5.4 L8.40000473,11 C8.40000473,11.1104569 8.48954778,11.2 8.60000473,11.2 L8.60000473,11.2 L9.40000473,11.2 C9.51046168,11.2 9.60000473,11.1104569 9.60000473,11 L9.60000473,11 L9.60000473,5.4 C9.60000473,5.28954305 9.51046168,5.2 9.40000473,5.2 L9.40000473,5.2 Z M12.6000071,2.2 L11.8000071,2.2 C11.6895501,2.2 11.6000071,2.28954305 11.6000071,2.4 L11.6000071,2.4 L11.6000071,11 C11.6000071,11.1104569 11.6895501,11.2 11.8000071,11.2 L11.8000071,11.2 L12.6000071,11.2 C12.710464,11.2 12.8000071,11.1104569 12.8000071,11 L12.8000071,11 L12.8000071,2.4 C12.8000071,2.28954305 12.710464,2.2 12.6000071,2.2 L12.6000071,2.2 Z M15.8000095,8.2 L15.0000095,8.2 C14.8895525,8.2 14.8000095,8.28954305 14.8000095,8.4 L14.8000095,8.4 L14.8000095,11 C14.8000095,11.1104569 14.8895525,11.2 15.0000095,11.2 L15.0000095,11.2 L15.8000095,11.2 C15.9104664,11.2 16.0000095,11.1104569 16.0000095,11 L16.0000095,11 L16.0000095,8.4 C16.0000095,8.28954305 15.9104664,8.2 15.8000095,8.2 L15.8000095,8.2 Z" id="Combined-Shape" fill="url(#linearGradient-1)"></path>
                    <path d="M14.5,15.6 L14.5,16.4 C14.5,16.5104569 14.4104569,16.6 14.3,16.6 L3.7,16.6 C3.58954305,16.6 3.5,16.5104569 3.5,16.4 L3.5,15.6 C3.5,15.4895431 3.58954305,15.4 3.7,15.4 L14.3,15.4 C14.4104569,15.4 14.5,15.4895431 14.5,15.6 Z" id="Path" fill="#2E5FEB" fill-rule="nonzero"></path>
                </g>
            </g>
        </g>
    </g>
</svg>