<?xml version="1.0" encoding="UTF-8"?>
<svg width="20px" height="20px" viewBox="0 0 20 20" version="1.1" xmlns="http://www.w3.org/2000/svg" xmlns:xlink="http://www.w3.org/1999/xlink">
    <title>ic_tubiao</title>
    <defs>
        <linearGradient x1="50%" y1="0%" x2="50%" y2="118.327896%" id="linearGradient-1">
            <stop stop-color="#1843DD" offset="0%"></stop>
            <stop stop-color="#3062EC" offset="53.0532539%"></stop>
            <stop stop-color="#2B65E6" offset="100%"></stop>
        </linearGradient>
    </defs>
    <g id="Symbols" stroke="none" stroke-width="1" fill="none" fill-rule="evenodd">
        <g id="card1" transform="translate(-20.000000, -20.000000)">
            <g id="Group" transform="translate(20.000000, 20.000000)">
                <rect id="Rectangle" fill="#D8D8D8" opacity="0" x="0" y="0" width="20" height="20"></rect>
                <path d="M19,15.6 L19,18 C19,18.5522847 18.5522847,19 18,19 L12.2,19 L12.2,15.6 L19,15.6 Z M11,10.1 L11,19 L2,19 C1.44771525,19 1,18.5522847 1,18 L1,10.1 L11,10.1 Z M18,1 C18.5522847,1 19,1.44771525 19,2 L19,14.4 L12.2,14.4 L12.2,1 L18,1 Z M11,1 L11,8.9 L1,8.899 L1,2 C1,1.44771525 1.44771525,1 2,1 L11,1 Z" id="Combined-Shape" fill="url(#linearGradient-1)"></path>
            </g>
        </g>
    </g>
</svg>