<?xml version="1.0" encoding="UTF-8"?>
<svg width="20px" height="20px" viewBox="0 0 20 20" version="1.1" xmlns="http://www.w3.org/2000/svg" xmlns:xlink="http://www.w3.org/1999/xlink">
    <title>ic_yibiaopan</title>
    <defs>
        <linearGradient x1="50%" y1="0%" x2="50%" y2="118.327896%" id="linearGradient-1">
            <stop stop-color="#1843DD" offset="0%"></stop>
            <stop stop-color="#3062EC" offset="53.0532539%"></stop>
            <stop stop-color="#2B65E6" offset="100%"></stop>
        </linearGradient>
    </defs>
    <g id="Symbols" stroke="none" stroke-width="1" fill="none" fill-rule="evenodd">
        <g id="card1" transform="translate(-20.000000, -20.000000)">
            <g id="ic_yibiaopan" transform="translate(20.000000, 20.000000)">
                <rect id="Rectangle" fill="#D8D8D8" opacity="0" x="0" y="0" width="20" height="20"></rect>
                <g id="Shape" transform="translate(0.000000, 1.000000)" fill="url(#linearGradient-1)">
                    <path d="M19.2142857,6.10714286 C18.7098214,4.91517857 17.9888393,3.84598214 17.0714286,2.92857143 C16.1540179,2.01116071 15.0848214,1.29017857 13.8928571,0.785714286 C12.6584821,0.263392857 11.3504464,0 10,0 C8.64955357,0 7.34151786,0.263392857 6.10714286,0.785714286 C4.91517857,1.29017857 3.84598214,2.01116071 2.92857143,2.92857143 C2.01116071,3.84598214 1.29017857,4.91517857 0.785714286,6.10714286 C0.263392857,7.34151786 0,8.64955357 0,10 C0,12.9620536 1.30133929,15.7522321 3.56919643,17.6584821 L3.60714286,17.6897321 C3.73660714,17.796875 3.89955357,17.8571429 4.06696429,17.8571429 L15.9352679,17.8571429 C16.1026786,17.8571429 16.265625,17.796875 16.3950893,17.6897321 L16.4330357,17.6584821 C18.6986607,15.7522321 20,12.9620536 20,10 C20,8.64955357 19.734375,7.34151786 19.2142857,6.10714286 Z M9.33035714,2.67857143 C9.33035714,2.58035714 9.41071429,2.5 9.50892857,2.5 L10.4910714,2.5 C10.5892857,2.5 10.6696429,2.58035714 10.6696429,2.67857143 L10.6696429,4.46428571 C10.6696429,4.5625 10.5892857,4.64285714 10.4910714,4.64285714 L9.50892857,4.64285714 C9.41071429,4.64285714 9.33035714,4.5625 9.33035714,4.46428571 L9.33035714,2.67857143 Z M4.59821429,10.4910714 C4.59821429,10.5892857 4.51785714,10.6696429 4.41964286,10.6696429 L2.63392857,10.6696429 C2.53571429,10.6696429 2.45535714,10.5892857 2.45535714,10.4910714 L2.45535714,9.50892857 C2.45535714,9.41071429 2.53571429,9.33035714 2.63392857,9.33035714 L4.41964286,9.33035714 C4.51785714,9.33035714 4.59821429,9.41071429 4.59821429,9.50892857 L4.59821429,10.4910714 Z M6.62276786,5.92633929 L5.92857143,6.62053571 C5.859375,6.68973214 5.74553571,6.68973214 5.67633929,6.62053571 L4.41294643,5.35714286 C4.34375,5.28794643 4.34375,5.17410714 4.41294643,5.10491071 L5.10714286,4.41071429 C5.17633929,4.34151786 5.29017857,4.34151786 5.359375,4.41071429 L6.62276786,5.67410714 C6.69196429,5.74330357 6.69196429,5.85714286 6.62276786,5.92633929 L6.62276786,5.92633929 Z M13.1205357,7.79241071 L11.234375,9.67857143 C11.3459821,10.0959821 11.2388393,10.5580357 10.9107143,10.8861607 C10.421875,11.375 9.63169643,11.375 9.14285714,10.8861607 C8.65401786,10.3973214 8.65401786,9.60714286 9.14285714,9.11830357 C9.47098214,8.79017857 9.93303571,8.68303571 10.3504464,8.79464286 L12.2366071,6.90848214 C12.3058036,6.83928571 12.4196429,6.83928571 12.4888393,6.90848214 L13.1205357,7.54017857 C13.1897321,7.609375 13.1897321,7.72098214 13.1205357,7.79241071 L13.1205357,7.79241071 Z M14.0803571,6.62276786 L13.3861607,5.92857143 C13.3169643,5.859375 13.3169643,5.74553571 13.3861607,5.67633929 L14.6495536,4.41294643 C14.71875,4.34375 14.8325893,4.34375 14.9017857,4.41294643 L15.5959821,5.10714286 C15.6651786,5.17633929 15.6651786,5.29017857 15.5959821,5.359375 L14.3325893,6.62276786 C14.2633929,6.69196429 14.1495536,6.69196429 14.0803571,6.62276786 Z M17.4553571,10.4910714 C17.4553571,10.5892857 17.375,10.6696429 17.2767857,10.6696429 L15.4910714,10.6696429 C15.3928571,10.6696429 15.3125,10.5892857 15.3125,10.4910714 L15.3125,9.50892857 C15.3125,9.41071429 15.3928571,9.33035714 15.4910714,9.33035714 L17.2767857,9.33035714 C17.375,9.33035714 17.4553571,9.41071429 17.4553571,9.50892857 L17.4553571,10.4910714 Z"></path>
                </g>
            </g>
        </g>
    </g>
</svg>